{
	"accessors" : 
	[
		{
			"bufferView" : 2,
			"byteOffset" : 0,
			"componentType" : 5126,
			"count" : 435,
			"max" : 
			[
				0.6800203323364258,
				0.6800203323364258,
				0.6800203323364258,
				0.2509804
			],
			"min" : 
			[
				0.6800203323364258,
				0.6800203323364258,
				0.6800203323364258,
				0.2509804
			],
			"name" : "accessor_color_m0-PolyGlass24_-630812",
			"type" : "VEC4"
		},
		{
			"bufferView" : 2,
			"byteOffset" : 6960,
			"componentType" : 5126,
			"count" : 6028,
			"max" : 
			[
				1,
				1,
				1,
				1
			],
			"min" : 
			[
				5.692175545846112e-05,
				0.05284162983298302,
				0,
				1
			],
			"name" : "accessor_color_m1-PolyPaper18_-630814",
			"type" : "VEC4"
		},
		{
			"bufferView" : 0,
			"byteOffset" : 0,
			"componentType" : 5123,
			"count" : 681,
			"max" : 
			[
				434
			],
			"min" : 
			[
				0
			],
			"name" : "accessor_indices_0_m0-PolyGlass24_-630812",
			"type" : "SCALAR"
		},
		{
			"bufferView" : 0,
			"byteOffset" : 1362,
			"componentType" : 5123,
			"count" : 10104,
			"max" : 
			[
				6027
			],
			"min" : 
			[
				0
			],
			"name" : "accessor_indices_0_m1-PolyPaper18_-630814",
			"type" : "SCALAR"
		},
		{
			"bufferView" : 1,
			"byteOffset" : 5220,
			"componentType" : 5126,
			"count" : 435,
			"max" : 
			[
				1,
				0.7071089,
				0.9899495
			],
			"min" : 
			[
				-1,
				-1,
				-0.9876355
			],
			"name" : "accessor_normal_m0-PolyGlass24_-630812",
			"type" : "VEC3"
		},
		{
			"bufferView" : 1,
			"byteOffset" : 82776,
			"componentType" : 5126,
			"count" : 6028,
			"max" : 
			[
				1,
				1,
				1
			],
			"min" : 
			[
				-1,
				-1,
				-1
			],
			"name" : "accessor_normal_m1-PolyPaper18_-630814",
			"type" : "VEC3"
		},
		{
			"bufferView" : 1,
			"byteOffset" : 0,
			"componentType" : 5126,
			"count" : 435,
			"max" : 
			[
				2.807528,
				2.81,
				-1.2175
			],
			"min" : 
			[
				2.457525,
				0.8467204,
				-2.730001
			],
			"name" : "accessor_position_m0-PolyGlass24_-630812",
			"type" : "VEC3"
		},
		{
			"bufferView" : 1,
			"byteOffset" : 10440,
			"componentType" : 5126,
			"count" : 6028,
			"max" : 
			[
				2.857476,
				3.659978,
				-1.264042
			],
			"min" : 
			[
				2.217273,
				0.8841935,
				-2.686951
			],
			"name" : "accessor_position_m1-PolyPaper18_-630814",
			"type" : "VEC3"
		}
	],
	"asset" : 
	{
		"copyright" : "Unknown",
		"generator" : "glTF 1-to-2 Upgrader for Google Blocks",
		"version" : "2.0"
	},
	"bufferViews" : 
	[
		{
			"buffer" : 0,
			"byteLength" : 21570,
			"byteOffset" : 0,
			"name" : "ushortBufferView",
			"target" : 34963
		},
		{
			"buffer" : 0,
			"byteLength" : 155112,
			"byteOffset" : 21570,
			"byteStride" : 12,
			"name" : "vec3BufferView",
			"target" : 34962
		},
		{
			"buffer" : 0,
			"byteLength" : 103408,
			"byteOffset" : 176682,
			"byteStride" : 16,
			"name" : "vec4BufferView",
			"target" : 34962
		}
	],
	"buffers" : 
	[
		{
			"byteLength" : 280090,
			"name" : "model",
			"uri" : "model.bin"
		}
	],
	"materials" : 
	[
		{
			"alphaMode" : "OPAQUE",
			"doubleSided" : false,
			"name" : "BlocksPaper",
			"pbrMetallicRoughness" : 
			{
				"baseColorFactor" : 
				[
					1,
					1,
					1,
					1
				],
				"metallicFactor" : 0,
				"roughnessFactor" : 0.6
			}
		},
		{
			"alphaMode" : "BLEND",
			"doubleSided" : false,
			"name" : "BlocksGlass",
			"pbrMetallicRoughness" : 
			{
				"baseColorFactor" : 
				[
					0.2,
					0.2,
					1,
					0.3
				],
				"metallicFactor" : 1,
				"roughnessFactor" : 0.4
			}
		},
		{
			"alphaMode" : "OPAQUE",
			"doubleSided" : true,
			"name" : "BlocksGem",
			"pbrMetallicRoughness" : 
			{
				"baseColorFactor" : 
				[
					1,
					0.4,
					1,
					1
				],
				"metallicFactor" : 0,
				"roughnessFactor" : 0.1
			}
		}
	],
	"meshes" : 
	[
		{
			"name" : "mesh_m0-PolyGlass24_-630812",
			"primitives" : 
			[
				{
					"attributes" : 
					{
						"COLOR_0" : 0,
						"NORMAL" : 4,
						"POSITION" : 6
					},
					"indices" : 2,
					"material" : 1,
					"mode" : 4
				}
			]
		},
		{
			"name" : "mesh_m1-PolyPaper18_-630814",
			"primitives" : 
			[
				{
					"attributes" : 
					{
						"COLOR_0" : 1,
						"NORMAL" : 5,
						"POSITION" : 7
					},
					"indices" : 3,
					"material" : 0,
					"mode" : 4
				}
			]
		}
	],
	"nodes" : 
	[
		{
			"matrix" : 
			[
				1,
				0,
				0,
				0,
				0,
				1,
				0,
				0,
				0,
				0,
				1,
				0,
				0,
				0,
				0,
				1
			],
			"mesh" : 0,
			"name" : "node_MeshObject1240888704-PolyGlass24"
		},
		{
			"matrix" : 
			[
				1,
				0,
				0,
				0,
				0,
				1,
				0,
				0,
				0,
				0,
				1,
				0,
				0,
				0,
				0,
				1
			],
			"mesh" : 1,
			"name" : "node_MeshObject1759608768-PolyPaper18"
		}
	],
	"scene" : 0,
	"scenes" : 
	[
		{
			"extras" : {},
			"name" : "defaultScene",
			"nodes" : 
			[
				0,
				1
			]
		}
	]
}